# xmcd
#
# Track frame offsets:
#	150
#	22388
#	44375
#	65458
#	87640
#	109185
#	130918
#	156128
#
# Disc length: 2336 seconds
#
# Revision: 2
# Processed by: cddbd v1.5.2PL0 Copyright (c) Steve Scherf et al.
# Submitted via: EasyCDDAExtractor 15.3.0.1
#
DISCID=70091e08
DTITLE=Rey Ruiz - Mi Media Mitad
DYEAR=1994
DGENRE=Latin
TTITLE0=Mi Media Mitad
TTITLE1=Mal Momento
TTITLE2=Quien Lo Diria
TTITLE3=Por Que Te Vas (ET-Maintenant)
TTITLE4=Luna Negra
TTITLE5=Si Te Preguntan
TTITLE6=Lo Mejor De Mi
TTITLE7=Es Dificil De Explicar
EXTD=
EXTT0=
EXTT1=
EXTT2=
EXTT3=
EXTT4=
EXTT5=
EXTT6=
EXTT7=
PLAYORDER=
